<svg id="Layer_1" enable-background="new 0 0 512.566 512.566" height="512" viewBox="0 0 512.566 512.566" width="512" xmlns="http://www.w3.org/2000/svg"><g><path d="m94.009 87.817c-9.918 0-17.987 8.069-17.987 17.988 0 9.918 8.069 17.987 17.987 17.987 9.919 0 17.988-8.069 17.988-17.987 0-9.919-8.069-17.988-17.988-17.988z"/><ellipse cx="332.854" cy="464.293" rx="39.131" ry="39.13" transform="matrix(.383 -.924 .924 .383 -223.475 594.132)"/><path d="m262.819 464.293c0-4.035.362-7.984 1.02-11.834h-202.826c-16.475 0-29.879-13.404-29.879-29.88s13.404-29.88 29.879-29.88h139.822c31.791 0 57.656-25.864 57.656-57.655s-25.864-57.655-57.656-57.655h-61.572l-18.485 30.904h80.057c14.751 0 26.751 12 26.751 26.751s-12.001 26.751-26.751 26.751h-139.822c-33.516 0-60.784 27.268-60.784 60.784s27.268 60.784 60.784 60.784h204.467c-1.721-6.067-2.661-12.459-2.661-19.07z"/><path d="m512.554 250.4c-.244-6.088-4.044-11.464-9.701-13.727l-164.251-65.701c-4.761-1.903-10.156-1.323-14.402 1.552s-6.79 7.668-6.79 12.795v210.676c4.972-1.124 10.136-1.737 15.443-1.737 5.314 0 10.483.615 15.461 1.741v-53.871l155.669-77.268c5.458-2.708 8.815-8.372 8.571-14.46z"/><path d="m189.508 103.897c0-52.331-42.423-94.754-94.754-94.754-52.331 0-94.754 42.423-94.754 94.754v.393c0 18.915 5.061 37.485 14.658 53.785l72.106 122.463c3.264 5.543 11.272 5.571 14.574.05l73.138-122.278c9.837-16.445 15.032-35.25 15.032-54.413zm-95.499 50.799c-26.959 0-48.892-21.933-48.892-48.892s21.933-48.892 48.892-48.892 48.892 21.933 48.892 48.892c0 26.96-21.933 48.892-48.892 48.892z"/></g></svg>