<svg xmlns="http://www.w3.org/2000/svg" width="46.286" height="72" viewBox="0 0 46.286 72"><g transform="translate(2777 -2709)"><g transform="translate(0.5 0.05)"><path d="M40.571,2H9.714A7.714,7.714,0,0,0,2,9.714V66.286A7.714,7.714,0,0,0,9.714,74H40.571a7.714,7.714,0,0,0,7.714-7.714V9.714A7.714,7.714,0,0,0,40.571,2Zm5.143,63a6.435,6.435,0,0,1-6.429,6.429H11A6.436,6.436,0,0,1,4.571,65V11A6.436,6.436,0,0,1,11,4.571H39.286A6.435,6.435,0,0,1,45.714,11Z" transform="translate(-2779.5 2706.95)" fill="#141324"/><path d="M36.143,4h-9A5.143,5.143,0,0,1,16.857,4h-9A3.861,3.861,0,0,0,4,7.857v54a3.861,3.861,0,0,0,3.857,3.857H36.143A3.861,3.861,0,0,0,40,61.857v-54A3.861,3.861,0,0,0,36.143,4ZM18.989,42.889A1.286,1.286,0,0,1,17.3,44.825l-10.286-9a1.286,1.286,0,0,1,0-1.936l10.286-9a1.286,1.286,0,0,1,1.693,1.936L9.81,34.857Zm18-7.064-10.286,9a1.286,1.286,0,0,1-1.693-1.936l9.18-8.032-9.18-8.032A1.286,1.286,0,0,1,26.7,24.889l10.286,9a1.286,1.286,0,0,1,0,1.936Z" transform="translate(-2776.357 2710.093)" fill="#141324"/><rect width="33" height="33" transform="translate(-2771 2729)" fill="#141324"/></g><g transform="translate(-2832.216 2648.018)"><path d="M78.127,89.566l.554-.957a1.246,1.246,0,0,1,2.16,1.244l-5.335,9.234h3.858a1.707,1.707,0,0,1,1.408,2.488H69.46a1.244,1.244,0,1,1,0-2.488h3.172l4.06-7.037-1.268-2.2a1.246,1.246,0,0,1,2.16-1.244Z" transform="translate(0 0)" fill="#fff"/><path d="M101.52,351.635l-1.2,2.074a1.246,1.246,0,1,1-2.16-1.244l.889-1.538A2.13,2.13,0,0,1,101.52,351.635Z" transform="translate(-28.191 -248.777)" fill="#fff"/><path d="M274.944,183.694h3.236a1.244,1.244,0,0,1,0,2.488h-1.8l1.213,2.105a1.246,1.246,0,1,1-2.16,1.244q-3.066-5.316-4.6-7.963a3.442,3.442,0,0,1,.437-4.214Q272.5,179.456,274.944,183.694Z" transform="translate(-191.315 -84.599)" fill="#fff"/></g></g></svg>