<svg xmlns="http://www.w3.org/2000/svg" width="48.482" height="62.421" viewBox="0 0 48.482 62.421"><path d="M35.622,3.416,5.83,33.208a1.417,1.417,0,0,0,0,2.006l7.925,7.925a1.417,1.417,0,0,0,2.006,0L53.477,5.422a1.418,1.418,0,0,0-1-2.422H36.625A1.417,1.417,0,0,0,35.622,3.416ZM53.477,33.795,28.944,58.328,20.016,49.4a1.417,1.417,0,0,1,0-2.006L35.622,31.789a1.417,1.417,0,0,1,1-.416H52.474A1.418,1.418,0,0,1,53.477,33.795Zm0,29.2L43.131,52.653,28.944,58.328l6.678,6.678a1.417,1.417,0,0,0,1,.416H52.474A1.418,1.418,0,0,0,53.477,63Z" transform="translate(-5.414 -3)" fill="#141324"/></svg>