<svg xmlns="http://www.w3.org/2000/svg" width="81.688" height="82.823" viewBox="0 0 81.688 82.823"><g transform="translate(-1.396 -1)"><path d="M40.118,58.5H36.494a1.294,1.294,0,1,0,0,2.588h3.623a1.223,1.223,0,0,0,1.294-1.294A1.392,1.392,0,0,0,40.118,58.5Z" transform="translate(9.942 16.911)" fill="#1c1c1c"/><path d="M82.153,44.094c-1.035-.388-1.812-1.035-1.812-1.682s.776-1.294,1.812-1.682a1.192,1.192,0,0,0,.906-1.424,18.242,18.242,0,0,0-2.847-6.729,1.232,1.232,0,0,0-1.682-.388,2.409,2.409,0,0,1-2.459.129c-.518-.518-.388-1.424.129-2.459a1.412,1.412,0,0,0-.388-1.682,15.29,15.29,0,0,0-3.753-2.071V7.471A6.408,6.408,0,0,0,65.589,1H30.907a6.408,6.408,0,0,0-6.471,6.471V33.094L13.7,22.482c0-.129-.129-.129-.259-.129s-.129-.129-.259-.129L3.213,18.6a1.41,1.41,0,0,0-1.424.259,1.181,1.181,0,0,0-.259,1.424l3.623,9.965v.129a.278.278,0,0,0,.259.259L17.448,42.67,3.86,54.964a6.48,6.48,0,0,0-2.2,4.918A6.354,6.354,0,0,0,3.6,64.541,6.354,6.354,0,0,0,8.26,66.482h.129a6.412,6.412,0,0,0,4.788-2.2L24.436,51.858V77.352a6.408,6.408,0,0,0,6.471,6.471H65.589a6.408,6.408,0,0,0,6.471-6.471V58.717a20.622,20.622,0,0,0,3.753-1.941,1.371,1.371,0,0,0,.388-1.682,2.409,2.409,0,0,1-.129-2.459c.518-.518,1.424-.518,2.459.129a1.412,1.412,0,0,0,1.682-.388,18.242,18.242,0,0,0,2.847-6.729,1.264,1.264,0,0,0-.906-1.553ZM6.966,27.27,4.9,21.835l5.435,1.941ZM69.471,77.352a3.893,3.893,0,0,1-3.882,3.882H30.907a3.813,3.813,0,0,1-3.882-3.882V51.988L39.318,64.282a6.029,6.029,0,0,0,4.141,1.812A5.425,5.425,0,0,0,47.083,64.8l.388-.388a5.938,5.938,0,0,0,0-8.282L33.366,42.023l6.6-7.376h.129a6.22,6.22,0,0,0,5.694-4.529A31.935,31.935,0,0,1,49.8,20.929a1.645,1.645,0,0,0,0-1.553,1.437,1.437,0,0,0-1.424-.518c-1.682.518-10.612,2.847-12.682,5.047a6.855,6.855,0,0,0-1.941,4.271l-6.6,5.953V7.471a3.813,3.813,0,0,1,3.882-3.882H65.589a3.893,3.893,0,0,1,3.882,3.882V25.459c-.129,0-.259-.129-.388-.129a1.192,1.192,0,0,0-1.424.906c-.259,1.035-1.035,1.812-1.682,1.812s-1.294-.776-1.682-1.812a1.26,1.26,0,0,0-1.424-.906,18,18,0,0,0-6.729,2.718,1.232,1.232,0,0,0-.388,1.682,2.409,2.409,0,0,1,.129,2.459c-.518.518-1.424.388-2.459-.129a1.412,1.412,0,0,0-1.682.388,18.242,18.242,0,0,0-2.847,6.729A1.192,1.192,0,0,0,49.8,40.6c1.035.388,1.812,1.035,1.812,1.682s-.776,1.294-1.812,1.682a1.192,1.192,0,0,0-.906,1.424,16.316,16.316,0,0,0,2.847,6.729,1.232,1.232,0,0,0,1.682.388,2.409,2.409,0,0,1,2.459-.129c.518.518.388,1.424-.129,2.459a1.371,1.371,0,0,0,.388,1.682,16.09,16.09,0,0,0,6.729,2.718h.259a1.558,1.558,0,0,0,1.294-.906c.259-1.035,1.035-1.812,1.682-1.812s1.294.776,1.682,1.812a1.26,1.26,0,0,0,1.424.906.475.475,0,0,0,.388-.129V77.352ZM37.377,25.847c1.035-1.035,5.047-2.459,8.541-3.494A32.893,32.893,0,0,0,43.2,29.47a3.79,3.79,0,0,1-3.365,2.718,3.3,3.3,0,0,1-3.365-1.941A3.931,3.931,0,0,1,37.377,25.847ZM80.342,46.035a20.264,20.264,0,0,1-1.553,3.882,3.987,3.987,0,0,0-5.306,5.176A10.212,10.212,0,0,1,69.6,56.647a4.211,4.211,0,0,0-3.753-2.459,4.032,4.032,0,0,0-3.624,2.459,24.29,24.29,0,0,1-3.882-1.553,4.109,4.109,0,0,0-.906-4.4,4.348,4.348,0,0,0-4.4-.776,17.375,17.375,0,0,1-1.553-3.882,4.176,4.176,0,0,0,2.459-3.623,4.359,4.359,0,0,0-2.459-3.753,24.29,24.29,0,0,1,1.553-3.882,4.348,4.348,0,0,0,4.4-.776,4.373,4.373,0,0,0,.906-4.4,12.846,12.846,0,0,1,3.882-1.553,4.176,4.176,0,0,0,3.624,2.459A4.359,4.359,0,0,0,69.6,28.047,24.29,24.29,0,0,1,73.483,29.6a4.109,4.109,0,0,0,.906,4.4,4.348,4.348,0,0,0,4.4.776,10.212,10.212,0,0,1,1.553,3.882,4.211,4.211,0,0,0-2.459,3.753A3.832,3.832,0,0,0,80.342,46.035Z" transform="translate(0)" fill="#1c1c1c"/><path d="M50.047,8.841a4.145,4.145,0,0,1-4.012,4.141H33.612A4.061,4.061,0,0,1,29.6,8.841,4.145,4.145,0,0,1,33.612,4.7H46.035a4.235,4.235,0,0,1,4.012,4.141Z" transform="translate(8.295 1.088)" fill="#1c1c1c"/><path d="M60.829,34.765A7.765,7.765,0,1,1,53.065,27,7.787,7.787,0,0,1,60.829,34.765Z" transform="translate(12.912 7.647)" fill="#1c1c1c"/></g></svg>