<svg xmlns="http://www.w3.org/2000/svg" width="56.958" height="55.122" viewBox="0 0 56.958 55.122"><g transform="translate(0 -8.25)"><path d="M143.925,442.2h-4.116V438.25H119.785V442.2h-4.116a1.669,1.669,0,1,0,0,3.337h28.256a1.669,1.669,0,1,0,0-3.337Z" transform="translate(-101.318 -382.164)" fill="#141324"/><path d="M0,351.587a3.341,3.341,0,0,0,3.337,3.337H53.62a3.341,3.341,0,0,0,3.337-3.337V348.25H0Z" transform="translate(0 -302.177)" fill="#141324"/><path d="M53.62,8.25H3.337A3.341,3.341,0,0,0,0,11.587V42.736H56.958V11.587A3.341,3.341,0,0,0,53.62,8.25ZM39.606,23.268a1.669,1.669,0,0,1-1.669,1.669H19.468a1.669,1.669,0,1,1,0-3.337H37.937A1.669,1.669,0,0,1,39.606,23.268ZM15.018,14.925h7.008a1.669,1.669,0,1,1,0,3.337H15.018a1.669,1.669,0,0,1,0-3.337ZM8.344,38.287a1.669,1.669,0,1,1,1.669-1.669A1.672,1.672,0,0,1,8.344,38.287Zm0-6.675a1.669,1.669,0,1,1,1.669-1.669A1.672,1.672,0,0,1,8.344,31.612Zm0-6.675a1.669,1.669,0,1,1,1.669-1.669A1.672,1.672,0,0,1,8.344,24.937Zm0-6.675a1.669,1.669,0,1,1,1.669-1.669A1.672,1.672,0,0,1,8.344,18.262ZM22.027,38.286H15.018a1.669,1.669,0,0,1,0-3.337h7.008a1.669,1.669,0,1,1,0,3.337Zm5.229-6.675H19.468a1.669,1.669,0,0,1,0-3.337h7.787a1.669,1.669,0,1,1,0,3.337Zm11.514,0H33a1.669,1.669,0,0,1,0-3.337h5.766a1.669,1.669,0,1,1,0,3.337Zm9.845,0h-4a1.669,1.669,0,0,1,0-3.337h4a1.669,1.669,0,1,1,0,3.337Zm0-6.675h-4a1.669,1.669,0,0,1,0-3.337h4a1.669,1.669,0,1,1,0,3.337Z" fill="#141324"/></g></svg>