<svg id="Layer_42" height="512" viewBox="0 0 24 24" width="512" xmlns="http://www.w3.org/2000/svg" data-name="Layer 42"><path d="m5.7 5.344a4.714 4.714 0 0 1 6.6 0 1 1 0 0 0 1.4-1.425 6.721 6.721 0 0 0 -9.4 0 1 1 0 0 0 1.4 1.425z"/><path d="m6.7 6.287a1 1 0 1 0 1.4 1.425 1.283 1.283 0 0 1 1.8 0 1 1 0 1 0 1.4-1.425 3.29 3.29 0 0 0 -4.6 0z"/><path d="m21.56 10.17a1.021 1.021 0 0 0 -.93-.1l-3.722 1.09a3.991 3.991 0 0 1 .092.84v7a3.991 3.991 0 0 1 -.092.84l3.722 1.09a.937.937 0 0 0 .37.07 1.023 1.023 0 0 0 .56-.17 1 1 0 0 0 .44-.83v-9a1 1 0 0 0 -.44-.83z"/><rect height="13" rx="3" width="14" x="2" y="9"/></svg>