<svg height="512" viewBox="0 0 553.877 535.596" width="512" xmlns="http://www.w3.org/2000/svg"><g fill="rgb(0,0,0)"><path d="m330.277 55.981c0 18.101-8.573 35.769-23.382 46.342-14.592 10.418-33.95 12.576-50.413 5.389-16.373-7.148-28.134-22.537-31.687-39.935-3.684-18.04 1.406-37.39 13.987-50.918 12.185-13.102 30.463-19.397 48.096-15.909 17.428 3.448 31.942 16.056 38.821 32.298 3.038 7.173 4.578 14.946 4.578 22.733z"/><g><path d="m216.775 79.312c-4.402 0-8.804 0-13.206 0-10.67 0-21.34 0-32.01 0-13.133 0-26.267 0-39.4 0-11.792 0-23.585 0-35.377 0-6.647 0-13.293 0-19.94 0-.412 0-.824 0-1.236 0-.065 0-.03 3.181-.03 3.4v17.339c0 .392-.275 1.261.231 1.261h1.681 7.723 28.689 38.353 38.425 28.905 9.947c-5.593-6.443-9.924-13.954-12.755-22z"/><path d="m337.111 79.312c-2.831 8.045-7.162 15.556-12.753 22h11.758 29.449 38.403 38.622 30.104 12.85c.068 0 .033-11.641.033-12.496 0-2.714 0-5.428 0-8.142 0-.377.279-1.362-.221-1.362-5.167 0-10.335 0-15.502 0-10.872 0-21.744 0-32.616 0-13.14 0-26.28 0-39.42 0-11.972 0-23.943 0-35.915 0-7.367 0-14.733 0-22.1 0-.897 0-1.795 0-2.692 0z"/></g><path d="m384.868 214.676c8.876 2.8 18.867-.304 24.595-7.64 1.807-2.314 3.007-5.017 4.307-7.631 4.794-9.633 9.587-19.266 14.381-28.899 5.319-10.688 10.637-21.376 15.956-32.065 1.255-2.523 2.511-5.046 3.766-7.569 3.114-6.257 3.128-13.646-.262-19.811-4.472-8.133-14.103-12.371-23.123-10.23-6.136 1.456-10.728 5.492-13.841 10.837-5.271 9.05-10.543 18.101-15.814 27.151-4.424 7.596-8.849 15.192-13.273 22.789-.069.118-4.119-1.865-4.382-1.987-4.057-1.872-8.115-3.744-12.173-5.616-11.566-5.336-23.132-10.672-34.698-16.009-8.875-4.095-17.75-8.19-26.626-12.284-3.999-1.845-8.078-3.743-12.429-4.536-2.515-.459-5.034-.443-7.578-.514-2.713-.075-5.428-.085-8.141-.067-4.646.029-9.489-.212-14.043.818-4.048.916-7.863 2.696-11.622 4.43-3.646 1.682-7.292 3.364-10.938 5.047-11.366 5.244-22.733 10.488-34.099 15.733-9.507 4.386-19.014 8.773-28.521 13.159-.312.144-3.938 1.995-4.065 1.778-1.513-2.597-3.025-5.194-4.538-7.791-6.229-10.694-12.457-21.388-18.686-32.082-1.984-3.406-3.968-6.812-5.952-10.219-3.287-5.644-8.47-9.735-15.003-10.878-9.149-1.6-18.494 3.253-22.462 11.646-2.852 6.033-2.527 12.843.417 18.758 3.751 7.538 7.502 15.077 11.254 22.615 5.685 11.424 11.37 22.848 17.055 34.273 1.967 3.953 3.934 7.905 5.901 11.858 1.423 2.861 2.744 5.727 4.865 8.171 3.051 3.516 7.184 6.038 11.704 7.152 4.339 1.07 8.685.705 12.915-.625 3.074-.966 6.148-1.933 9.223-2.899 10.51-3.304 21.021-6.608 31.531-9.913.244-.077.488-.154.733-.23.386-.121.718-1.96.859-2.369 1.149-3.343 2.475-6.626 3.899-9.86 1.3-2.95 2.679-5.874 4.242-8.695.841-1.519 1.83-3.755 3.348-4.744-.947 4.306-1.901 8.61-2.833 12.92-.458 2.119-.913 4.238-1.351 6.362-.098.475-.976 3.921-.702 4.04-3.626 21.661-4.149 43.767-3.075 65.667.158 3.225.338 6.449.599 9.668.118 1.458.253 2.914.404 4.369-.567 1.398-1.134 2.796-1.701 4.194-2.242 5.527-4.463 11.061-6.654 16.608-4.604 11.656-9.15 23.335-13.623 35.042-4.605 12.053-9.146 24.129-13.68 36.209-4.611 12.286-9.452 24.486-14.096 36.759-8.899 23.519-17.757 47.056-26.245 70.728-3.025 8.437-6.242 16.834-9.012 25.36-2.867 8.826.009 18.818 7.132 24.767 7.05 5.888 17.171 7.006 25.336 2.808 4.005-2.059 7.347-5.292 9.546-9.222 1.579-2.822 3.031-5.722 4.542-8.581 11.417-21.608 22.497-43.408 33.391-65.284 5.725-11.498 11.435-23.003 17.106-34.528 1.768-3.592 3.535-7.185 5.301-10.778.847-1.723 1.839-3.424 2.555-5.203-.027.067-.054.137-.086.202 5.383-10.335 10.807-20.648 16.118-31.02 2.915-5.692 5.85-11.374 8.744-17.076 1.401-2.759 2.788-5.525 4.179-8.29.166-.33.332-.659.498-.989.244-.486.427-.304.926-.262.765.064 1.53.118 2.296.164 1.676.101 3.355.161 5.034.192 2.704.049 5.411.03 8.114-.074.758-.029 1.516-.066 2.274-.11.377-.022.754-.046 1.131-.073.547-.038.477.186.695.642.703 1.472 1.407 2.943 2.114 4.413 2.7 5.658 5.41 11.311 8.15 16.95 5.718 11.764 11.471 23.51 17.252 35.243 1.099 2.231 2.198 4.462 3.298 6.693-.011-.029-.024-.07-.038-.1.041.084.068.174.106.259-.191-.426-.345-.873-.517-1.306 9.407 21.934 18.788 43.882 28.508 65.68 4.962 11.127 9.914 22.257 14.99 33.333 2.021 4.411 4.014 8.836 6.061 13.234 1.745 3.75 3.272 7.845 5.788 11.162 5.804 7.652 16.043 10.932 25.212 8.085 8.765-2.721 15.214-10.647 16.102-19.782.413-4.243-.661-8.11-1.804-12.136-1.301-4.583-2.649-9.151-3.986-13.724-3.309-11.312-6.702-22.596-10.13-33.872-7.32-24.08-14.953-48.061-22.619-72.033-.613-1.917-1.35-3.794-2.027-5.69-2.217-6.211-4.435-12.422-6.648-18.634-4.279-12.016-8.656-23.999-13.083-35.96-4.281-11.567-8.565-23.134-13.001-34.643-.493-1.28-.989-2.558-1.482-3.838-.262-.679-.523-1.358-.785-2.037-.268-.695-.794-1.561-.711-2.304.345-3.104.611-6.217.806-9.334.395-6.335.658-12.679.763-19.026.322-19.553-.658-39.488-4.689-58.592-1.215-5.757-2.495-11.5-3.759-17.246.865.564 1.474 1.631 2.014 2.479.982 1.544 1.845 3.165 2.672 4.796 2.1 4.14 3.96 8.412 5.613 12.749.383 1.005.753 2.015 1.106 3.032.112.324.596 2.503.852 2.584.275.086.549.173.824.259 1.719.54 3.437 1.081 5.156 1.621 10.815 3.4 21.631 6.8 32.446 10.2 1.302.402 2.601.812 3.901 1.222z"/><path d="m67.16 125.479c0 9.319-8.038 16.946-17.34 16.479-8.682-.436-15.66-7.827-15.66-16.505 0-7.707 0-15.414 0-23.121 0-12.571 0-25.143 0-37.714 0-3.704 0-7.407 0-11.111 0-1.002-.017-2.003.083-3.002.445-4.425 2.722-8.547 6.214-11.298 7.302-5.753 18.249-4.163 23.642 3.393 2.015 2.823 3.061 6.216 3.061 9.678v2.481 31.471 34.22z"/><path d="m519.726 129.112c0 4.473-2.395 8.709-6.223 11.021-3.882 2.345-8.861 2.447-12.835.261-3.906-2.147-6.474-6.27-6.665-10.725-.028-.664-.012-1.332-.012-1.996 0-9.349 0-18.698 0-28.047 0-12.562 0-25.124 0-37.686 0-3.868 0-7.735 0-11.603 0-.697 0-1.395 0-2.092 0-3.685 1.575-7.238 4.337-9.686 3.39-3.005 8.241-4.008 12.547-2.595 4.201 1.379 7.479 4.938 8.502 9.24.583 2.453.349 5.191.349 7.696v32.853 35.372z"/><path d="m553.877 115.212c0 4.473-2.395 8.709-6.223 11.021-3.882 2.345-8.861 2.447-12.835.261-3.906-2.148-6.474-6.27-6.665-10.725-.04-.934-.012-1.874-.012-2.808 0-11.467 0-22.934 0-34.401 0-4.153 0-8.306 0-12.46 0-2.412.407-4.738 1.584-6.879 2.147-3.906 6.27-6.474 10.725-6.665 4.484-.191 8.826 2.026 11.3 5.77 1.507 2.28 2.125 4.877 2.125 7.582v11.943 34.739c.001.875.001 1.749.001 2.622z"/><path d="m25.744 115.212c0 4.473-2.395 8.709-6.223 11.021-3.882 2.345-8.861 2.447-12.835.261-3.906-2.148-6.474-6.27-6.665-10.725-.04-.934-.012-1.874-.012-2.808 0-11.467 0-22.934 0-34.401 0-4.153 0-8.306 0-12.46 0-2.412.407-4.738 1.584-6.879 2.148-3.906 6.27-6.474 10.725-6.665 4.483-.191 8.826 2.026 11.3 5.77 1.507 2.28 2.125 4.877 2.125 7.582v11.943 34.739c.001.875.001 1.749.001 2.622z"/></g></svg>