<svg id="Capa_1" enable-background="new 0 0 512 512" height="512" viewBox="0 0 512 512" width="512" xmlns="http://www.w3.org/2000/svg"><g><path d="m420.942 106c0-57.891-47.109-106-105-106-22.559 0-43.638 9.653-60 27.026-16.363-17.373-37.442-27.026-60-27.026-57.891 0-105 48.109-105 106 0 58.228 42.729 88.286 92.212 123.105 20.405 14.355 41.514 29.209 62.959 47.813l9.814 8.525 9.829-8.511c24.243-20.977 47.3-37.397 67.632-51.885 48.911-34.818 87.554-62.328 87.554-119.047zm-120 45h-30v30h-30v-30h-30v-30h30v-30h30v30h30z"/><path d="m493.942 137.199c-30.601 0-38.5 142.2-39.101 145.201-3.047 20.836-17.725 51.68-42.513 70.252l-64.971 47.173-17.988-24.023 64.971-47.159c25.737-19.296 37.467-52.244 5.301-52.244-28.808 0-82.657 33.353-98.621 46.584-19.063 15.8-30.079 39.276-30.079 64.036v124.981h90c0-14.401 7.8-30.101 19.799-45.101 12.601-16.5 30.601-33.3 49.2-50.4 35.4-33.3 72.1-67.5 76.901-102.299 2.85-23.376 5.217-63.468 5.099-99.2-.13-40.015-3.52-76.508-17.998-77.801z"/><path d="m207.342 320.2c-42.301-29.101-74.399-43.801-95.099-43.801-32.166 0-20.436 32.948 5.301 52.244l64.971 47.159-17.988 24.023-64.971-47.173c-24.79-18.572-39.468-49.416-42.515-70.252-.601-3.001-8.5-145.201-39.101-145.201-16.8 1.5-18.6 50.4-17.699 97.2.601 34.2 3.3 67.5 4.799 79.801 4.801 34.799 41.501 69 76.901 102.299 18.6 17.1 36.599 33.9 49.2 50.4 11.999 15 19.799 30.7 19.799 45.101h90v-124.382c.002-26.501-12.439-51.464-33.598-67.418z"/></g></svg>