<svg id="Capa_1" enable-background="new 0 0 511.593 511.593" height="512" viewBox="0 0 511.593 511.593" width="512" xmlns="http://www.w3.org/2000/svg"><g><path d="m330.61 160.941c-40.061 38.763-109.577 38.752-149.629.001-10.511 4.97-20.456 10.949-29.704 17.817 43.859 11.052 78.293 38.701 99.218 80.552 2.103 4.205 4.167 6.331 5.3 7.184 1.133-.853 3.198-2.979 5.3-7.184 20.925-41.851 55.36-69.5 99.219-80.552-9.247-6.869-19.192-12.848-29.704-17.818z"/><path d="m54.963 336.993c33.348-1.269 33.327-49.075 0-50.334-5.624 0-9.099 4.671-9.099 9.084v32.149c-.001 5.019 4.081 9.101 9.099 9.101z"/><path d="m456.646 286.659c-33.366 1.262-33.347 49.073-.016 50.334 5.018 0 9.1-4.082 9.1-9.101v-32.149c0-4.383-3.472-9.084-9.084-9.084z"/><path d="m62.996 208.46c-10.921 2.73-15 12.587-15 19.212v29.619c32.508-4.923 62.404 21.846 62.133 54.536.273 32.693-29.636 59.475-62.133 54.533v45.155c0 10.21 9.809 13.009 15 11.712 0 0 92.49-26.423 145.667 40.548v-214.767c-53.177-66.971-145.667-40.548-145.667-40.548z"/><path d="m238.663 291.098v214.782c10.807 7.617 23.46 7.617 34.267-.001v-214.782c-10.807 7.618-23.46 7.618-34.267.001z"/><path d="m401.463 311.826c-.273-32.693 29.636-59.473 62.133-54.534v-29.621c0-6.624-4.079-16.481-15-19.212 0 0-92.489-26.423-145.666 40.547v214.767c53.177-66.97 145.666-40.547 145.666-40.547 5.19 1.298 15-1.501 15-11.712v-45.155c-32.499 4.942-62.403-21.839-62.133-54.533z"/><path d="m229.744 50.976c2.392 1.27 28.113 13.875 105.008 14.201-17.142-85.497-137.424-87.389-157.371-2.666l39.472-13.158c4.604-1.533 8.996-1.215 12.891 1.623z"/><path d="m255.796 160.26c39.123 0 71.735-28.035 78.868-65.09-47.258-.845-80.453-2.803-114.164-15.409l-43.721 14.575c6.801 37.466 39.602 65.924 79.017 65.924z"/></g></svg>