<svg xmlns="http://www.w3.org/2000/svg" width="65.508" height="58.195" viewBox="0 0 65.508 58.195"><g transform="translate(637.905 -101.69)"><path d="M-620.055,159.884c-4-1.643-5.154-4.958-5.3-8.908a30.784,30.784,0,0,1,.891-8.109c.2-.882.073-1.162-.821-1.427a26.483,26.483,0,0,1-8.738-4.136c-2.193-1.678-3.963-3.658-3.879-6.684.079-2.831,1.787-4.691,3.849-6.284a26.731,26.731,0,0,1,8.731-4.148c.834-.255,1.083-.458.869-1.4a26.4,26.4,0,0,1-.621-10.724c.934-5.091,4.771-7.441,9.739-5.916a23.164,23.164,0,0,1,9.064,5.758c.882.838,1.333.827,2.221,0,2.9-2.7,6.014-5.086,10.007-5.985,4.026-.906,7.224.86,8.446,4.8,1.13,3.648.654,7.325-.024,10.986a2.908,2.908,0,0,1-.123.4c-.418,1.227-.215,1.862,1.261,2.291a21.532,21.532,0,0,1,9.866,5.42c2.972,3.082,2.96,6.923-.027,10.007-2.838,2.929-6.494,4.382-10.264,5.563-1.011.317-1.162.651-.931,1.615a29.482,29.482,0,0,1,.87,7.972c-.142,3.951-1.3,7.265-5.3,8.908h-3.9a27.888,27.888,0,0,1-10.407-6.628c-.511-.5-.851-.314-1.271.091a25.909,25.909,0,0,1-10.59,6.537Zm14.873-18.669c1.623,0,3.246-.038,4.867.016a1.737,1.737,0,0,0,1.686-.935,94.3,94.3,0,0,0,4.992-8.659,1.563,1.563,0,0,0,.05-1.559,91.853,91.853,0,0,0-5.142-8.892,1.556,1.556,0,0,0-1.478-.79q-4.938.035-9.875,0a1.556,1.556,0,0,0-1.5.756,92.021,92.021,0,0,0-5.146,8.891,1.562,1.562,0,0,0,.014,1.56,93.5,93.5,0,0,0,5.069,8.775,1.641,1.641,0,0,0,1.59.848C-608.428,141.186-606.8,141.215-605.182,141.216Zm-17.39-29.627a45.725,45.725,0,0,0,.8,6.312c.2,1.13.717,1.216,1.624,1a50.054,50.054,0,0,1,6.569-1.007,1.727,1.727,0,0,0,1.362-.752c.964-1.3,1.94-2.6,2.99-3.827,2.091-2.449,2.142-2.465-.351-4.552a17.853,17.853,0,0,0-7.323-4.092c-2.533-.591-4.246.346-5.067,2.823A11.7,11.7,0,0,0-622.572,111.588Zm.071,38.391a13.989,13.989,0,0,0,.016,1.8,12.734,12.734,0,0,0,.475,2.161c.857,2.731,2.534,3.66,5.329,2.942,3.63-.931,6.347-3.325,9.063-5.716.434-.382.3-.662-.032-1.029a62.7,62.7,0,0,1-4.623-5.72,1.268,1.268,0,0,0-.971-.672,55.864,55.864,0,0,1-7.256-1.09c-.625-.14-1.064-.014-1.2.736A32.994,32.994,0,0,0-622.5,149.979Zm34.741-.045a41.609,41.609,0,0,0-.819-6.31c-.174-.955-.62-1.134-1.43-.94a26.388,26.388,0,0,1-5.194.817,4.355,4.355,0,0,0-3.98,2.39,15.1,15.1,0,0,1-1.889,2.392c-2.126,2.444-2.162,2.471.291,4.548a17.755,17.755,0,0,0,7.444,4.149,3.816,3.816,0,0,0,4.918-2.681A11.7,11.7,0,0,0-587.76,149.934Zm0-38.253a11.658,11.658,0,0,0-.575-4.1c-.849-2.627-2.547-3.549-5.262-2.862-3.633.919-6.347,3.31-9.071,5.687-.5.435-.315.731.049,1.131a63.288,63.288,0,0,1,4.613,5.72,1.133,1.133,0,0,0,.862.605,53.02,53.02,0,0,1,7.251,1.089c.73.165,1.115-.081,1.273-.834A35.537,35.537,0,0,0-587.761,111.681ZM-635.105,130.8a5.491,5.491,0,0,0,2.453,3.992,26.193,26.193,0,0,0,8.473,4.031c.772.248.875-.167,1.034-.669a65.789,65.789,0,0,1,2.513-6.46,1.625,1.625,0,0,0,.143-1.448,63.026,63.026,0,0,1-2.719-6.975c-.137-.443-.325-.675-.9-.492a25.283,25.283,0,0,0-8.809,4.27A5.282,5.282,0,0,0-635.105,130.8Zm59.885.045a5.454,5.454,0,0,0-2.437-4,26.1,26.1,0,0,0-8.47-4.037c-.755-.243-.886.121-1.049.641a66.406,66.406,0,0,1-2.56,6.591,1.5,1.5,0,0,0-.106,1.319,65.144,65.144,0,0,1,2.72,6.975c.132.426.294.709.89.519,3.19-1.015,6.317-2.156,8.918-4.355A5.221,5.221,0,0,0-575.221,130.843Zm-26.262-13.334a32.261,32.261,0,0,0-3.307-4.163.429.429,0,0,0-.716-.027c-1.089,1.371-2.455,2.537-3.291,4.19Zm-7.363,26.609a32.434,32.434,0,0,0,3.331,4.177.43.43,0,0,0,.716-.01,31.783,31.783,0,0,0,3.312-4.166Zm-5.967-23.322c-2.023.373-3.65.677-5.278.971-.316.057-.567.2-.45.538a36.441,36.441,0,0,0,1.957,5.056Zm23.15,6.7c.677-1.852,1.244-3.407,1.813-4.961.1-.272.192-.621-.156-.7a26.024,26.024,0,0,0-5.4-.853Zm-26.993,6.636c-.682,1.852-1.273,3.445-1.855,5.042-.106.29-.089.569.281.643a28.52,28.52,0,0,0,5.309.818Zm23.225,6.557a36.81,36.81,0,0,0,5.259-.85c.345-.072.493-.276.379-.592-.59-1.638-1.2-3.27-1.878-5.116Z" transform="translate(0 0)" fill="#141324"/><path d="M-529.923,191a5.563,5.563,0,0,1-5.8,5.745,5.568,5.568,0,0,1-5.723-5.823,5.561,5.561,0,0,1,5.731-5.675A5.561,5.561,0,0,1-529.923,191Z" transform="translate(-69.478 -60.181)" fill="#141324"/></g></svg>