<svg id="Capa_1" enable-background="new 0 0 512 512" height="512" viewBox="0 0 512 512" width="512" xmlns="http://www.w3.org/2000/svg"><g><path d="m302 477c0 19.299 15.701 35 35 35h140c19.299 0 35-15.701 35-35v-25h-210z"/><path d="m416.26 310.955v36.661c6.872-3.428 10.956-10.107 12.021-16.441.587-3.494 1.417-15.163-12.021-20.22z"/><path d="m389.151 266.36c-.905 4.801.282 9.292 3.023 11.442 1.212.951 2.591 1.877 4.086 2.782v-25.054c-4.163 2.567-6.391 7.025-7.109 10.83z"/><path d="m477 182h-140c-19.299 0-35 15.701-35 35v205h210v-205c0-19.299-15.701-35-35-35zm-28.996 152.491c-2.504 14.895-13.931 29.997-31.744 34.268v8.241c0 5.523-4.477 10-10 10s-10-4.477-10-10v-7.312c-8.835-.683-16.028-2.939-26.311-9.665-4.622-3.023-5.918-9.221-2.895-13.843 3.024-4.622 9.221-5.917 13.843-2.895 6.157 4.028 10.027 5.676 15.362 6.31v-46.507c-6.999-3.18-12.192-6.225-16.429-9.548-8.681-6.809-12.641-18.643-10.334-30.883 2.518-13.363 11.813-23.993 24.256-27.742.846-.255 1.68-.48 2.506-.691v-7.224c0-5.523 4.477-10 10-10s10 4.477 10 10v6.091c10.522 1.669 17.936 6.8 21.491 10.88 3.628 4.164 3.194 10.48-.97 14.109-4.147 3.614-10.43 3.197-14.064-.92-.253-.261-2.356-2.325-6.456-3.609v36.122c2.061.77 4.122 1.512 6.144 2.227 18.785 6.64 28.834 23.358 25.601 42.591z"/><path d="m392 135c0 8.284 6.716 15 15 15s15-6.716 15-15v-50c0-8.284-6.716-15-15-15h-110c-8.284 0-15 6.716-15 15s6.716 15 15 15h95z"/><path d="m120 452h30v60h-30z"/><path d="m20 497c0 8.284 6.716 15 15 15h55v-75c0-8.284 6.716-15 15-15h60c8.284 0 15 6.716 15 15v75h55c8.284 0 15-6.716 15-15v-105h-230z"/><path d="m247.456 308.679c-2.782-4.173-7.465-6.679-12.481-6.679h-84.975v-22h-30v22h-84.975c-5.015 0-9.699 2.507-12.481 6.679l-20 30c-6.645 9.969.501 23.321 12.481 23.321h239.95c11.98 0 19.126-13.352 12.481-23.321z"/><path d="m35 250h200c8.284 0 15-6.716 15-15s-6.716-15-15-15h-15v-100h-30v100h-40v-100h-30v100h-40v-100h-30v100h-15c-8.284 0-15 6.716-15 15s6.716 15 15 15z"/><path d="m35 90h200c8.284 0 15-6.716 15-15v-10c0-5.682-3.21-10.875-8.292-13.417l-100-50c-4.223-2.111-9.193-2.111-13.416 0l-100 50c-5.082 2.542-8.292 7.735-8.292 13.417v10c0 8.284 6.716 15 15 15z"/></g></svg>