<svg id="Layer_1" height="512" viewBox="0 0 512 512" width="512" xmlns="http://www.w3.org/2000/svg"><path d="m179.68 371.53c0-3.48-2.83-6.32-6.31-6.32h-10.02v12.63h10.02c3.48 0 6.31-2.83 6.31-6.31z"/><path d="m183.37 402.84h-20.02v12.63h20.02c3.48 0 6.31-2.83 6.31-6.31s-2.83-6.32-6.31-6.32z"/><path d="m410.25 294.28h-28.08c7.49-9.01 14.03-18.82 19.48-29.29 57.28-107.29-25.05-241-145.65-239.39-120.58-1.61-202.94 132.11-145.65 239.38 5.44 10.48 11.99 20.29 19.48 29.3h-28.08c-23.43 0-42.5 19.07-42.5 42.5v107.12c0 23.43 19.07 42.5 42.5 42.5h308.5c23.43 0 42.5-19.07 42.5-42.5v-107.12c0-23.43-19.07-42.5-42.5-42.5zm-274.12-175c5.05 4.75 11.77 7.62 19.07 7.73l35.59.55h.45c1.62 0 3.21-.15 4.77-.41l17.27 22.31c-1.25 2.09-2.3 4.33-3.07 6.72l-9.2 28.31c-.77 2.36-1.23 4.75-1.45 7.14l-25.55 6.96c-1.07-1.22-2.25-2.37-3.55-3.42l-27.71-22.35c-6.88-5.55-15.69-7.46-23.94-5.66 2.81-17.23 8.79-33.4 17.33-47.9zm257.07 47.9c-8.25-1.8-17.06.11-23.94 5.66l-27.71 22.35c-1.3 1.05-2.48 2.2-3.55 3.42l-25.55-6.96c-.22-2.39-.69-4.78-1.45-7.14l-9.2-28.31c-.78-2.39-1.82-4.64-3.07-6.72l17.27-22.31c1.56.26 3.15.41 4.77.41h.45l35.59-.55c7.3-.11 14.02-2.98 19.07-7.73 8.54 14.5 14.52 30.67 17.33 47.9zm-88.08 198.03c-6.9 0-12.5-5.59-12.5-12.5 0-1.14.15-2.24.44-3.29.01-.05.03-.11.05-.16 1.5-5.23 6.31-9.05 12.01-9.05h56.03c6.9 0 12.5 5.6 12.5 12.5s-5.6 12.5-12.5 12.5h-15.51v62.76c0 6.91-5.6 12.5-12.5 12.5s-12.5-5.59-12.5-12.5v-62.76zm-19.13-12.5c0 6.91-5.59 12.5-12.5 12.5h-24.53v12.63h17.96c6.91 0 12.5 5.6 12.5 12.5s-5.59 12.5-12.5 12.5h-17.96v12.63h24.53c6.91 0 12.5 5.6 12.5 12.5s-5.59 12.5-12.5 12.5h-37.03c-6.9 0-12.5-5.59-12.5-12.5v-75.26c0-.73.07-1.44.18-2.14.01-.01.01-.03.01-.04 1.03-5.86 6.15-10.32 12.31-10.32h37.03c6.3 0 11.5 4.65 12.37 10.7v.04c.09.58.13 1.16.13 1.76zm-71.31 56.45c0 17.26-14.05 31.31-31.31 31.31h-32.52c-6.9 0-12.5-5.59-12.5-12.5v-75.26c0-6.9 5.6-12.5 12.5-12.5h22.52c17.26 0 31.31 14.05 31.31 31.32 0 4.45-.93 8.68-2.62 12.52 7.65 5.71 12.62 14.84 12.62 25.11zm83.38-114.88-25.31-18.39c-1.36-.99-2.78-1.83-4.25-2.55v-31.29c2.3-.96 4.52-2.19 6.6-3.71l24.08-17.5c2.16-1.57 4.08-3.36 5.74-5.33l26.54 7.23c.31 1.61.75 3.2 1.35 4.77l12.69 33.26c3.16 8.28 9.84 14.39 17.91 16.97-4.88 5.94-10.24 11.47-16.03 16.53h-49.34zm-14.63-240.96c-3.06 6.52-3.6 14.12-1.15 21.29l11.53 33.69c.51 1.49 1.13 2.91 1.86 4.26l-17.1 22.09c-2.48-.6-5.05-.92-7.69-.92h-29.77c-2.64 0-5.21.32-7.69.91l-17.1-22.09c.72-1.35 1.35-2.77 1.86-4.26l11.53-33.69c2.46-7.17 1.91-14.77-1.15-21.3 8.87-1.78 18.04-2.72 27.43-2.72s18.56.94 27.43 2.72zm-134.86 224.43c8.07-2.58 14.75-8.69 17.91-16.97l12.69-33.26c.6-1.57 1.04-3.17 1.35-4.77l26.54-7.23c1.67 1.97 3.58 3.76 5.74 5.33l24.08 17.5c2.09 1.52 4.3 2.75 6.6 3.71v31.29c-1.47.72-2.89 1.56-4.25 2.55l-25.31 18.39h-49.34c-5.79-5.06-11.15-10.59-16.03-16.53z"/></svg>