<svg xmlns="http://www.w3.org/2000/svg" width="48.715" height="75.779" viewBox="0 0 48.715 75.779"><g transform="translate(2923 -2160)"><g transform="translate(-2923 2160)"><path d="M42.6,2H10.119A8.119,8.119,0,0,0,2,10.119V69.66a8.119,8.119,0,0,0,8.119,8.119H42.6a8.119,8.119,0,0,0,8.119-8.119V10.119A8.119,8.119,0,0,0,42.6,2Zm5.413,66.307a6.773,6.773,0,0,1-6.766,6.766H11.472a6.774,6.774,0,0,1-6.766-6.766V11.472a6.774,6.774,0,0,1,6.766-6.766h29.77a6.773,6.773,0,0,1,6.766,6.766Z" transform="translate(-2 -2)" fill="#141324"/><path d="M37.83,4H28.358A5.413,5.413,0,1,1,17.532,4H8.06A4.064,4.064,0,0,0,4,8.06V64.894a4.064,4.064,0,0,0,4.06,4.06H37.83a4.064,4.064,0,0,0,4.06-4.06V8.06A4.064,4.064,0,0,0,37.83,4ZM19.776,44.93a1.353,1.353,0,0,1-1.781,2.038L7.169,37.5a1.353,1.353,0,0,1,0-2.038l10.826-9.472a1.353,1.353,0,0,1,1.781,2.038l-9.661,8.454ZM38.721,37.5,27.9,46.968a1.353,1.353,0,0,1-1.781-2.038l9.661-8.454-9.661-8.454A1.353,1.353,0,0,1,27.9,25.985l10.826,9.472a1.353,1.353,0,0,1,0,2.038Z" transform="translate(1.413 1.413)" fill="#141324"/><rect width="35.785" height="36.837" transform="translate(6.315 21.05)" fill="#141324"/></g><g transform="translate(-2910.115 2184.207)"><path d="M44.222,179.141a1.619,1.619,0,0,0-1.189.489,1.6,1.6,0,0,0-.489,1.173v7.007a1.669,1.669,0,0,0,1.678,1.679A1.594,1.594,0,0,0,45.4,189a1.634,1.634,0,0,0,.481-1.19V180.8a1.669,1.669,0,0,0-1.662-1.662Z" transform="translate(-42.544 -170.358)" fill="#fff"/><path d="M133.895,2.493,135.052.359a.215.215,0,0,0-.081-.326.226.226,0,0,0-.326.1l-1.173,2.151a8.173,8.173,0,0,0-6.551,0L125.747.131a.226.226,0,0,0-.326-.1.214.214,0,0,0-.081.326L126.5,2.493a7.145,7.145,0,0,0-2.8,2.5,6.318,6.318,0,0,0-1.043,3.512h15.073a6.32,6.32,0,0,0-1.043-3.512A7.175,7.175,0,0,0,133.895,2.493Zm-6.689,3.1a.611.611,0,0,1-.448.188.583.583,0,0,1-.44-.188.65.65,0,0,1,0-.9.585.585,0,0,1,.44-.187.633.633,0,0,1,.448,1.083Zm6.868,0a.584.584,0,0,1-.44.188.636.636,0,0,1,0-1.271.586.586,0,0,1,.44.187.65.65,0,0,1,0,.9Z" transform="translate(-118.723 0)" fill="#fff"/><path d="M123.971,196.3a1.78,1.78,0,0,0,1.792,1.792h1.206l.017,3.7a1.62,1.62,0,0,0,.489,1.19,1.6,1.6,0,0,0,1.173.489,1.669,1.669,0,0,0,1.678-1.679v-3.7h2.249v3.7a1.678,1.678,0,1,0,3.357,0v-3.7h1.222a1.78,1.78,0,0,0,1.776-1.792V185.45H123.971Z" transform="translate(-119.979 -176.357)" fill="#fff"/><path d="M444.038,179.141a1.615,1.615,0,0,0-1.173.481,1.593,1.593,0,0,0-.489,1.181v7.007a1.618,1.618,0,0,0,.489,1.19,1.6,1.6,0,0,0,1.173.489,1.669,1.669,0,0,0,1.678-1.679V180.8a1.593,1.593,0,0,0-.489-1.181A1.635,1.635,0,0,0,444.038,179.141Z" transform="translate(-422.772 -170.358)" fill="#fff"/></g></g></svg>