<svg xmlns="http://www.w3.org/2000/svg" width="58.181" height="57.954" viewBox="0 0 58.181 57.954"><g transform="translate(5352.973 11732.445)"><g transform="translate(-5352.973 -11732.445)"><path d="M58.181,14.636V6.114A5.119,5.119,0,0,0,53.067,1H5.114A5.119,5.119,0,0,0,0,6.114v8.523ZM39.317,7.818H49.544a1.7,1.7,0,0,1,0,3.409H39.317a1.7,1.7,0,0,1,0-3.409Zm-17.045,0a1.7,1.7,0,1,1-1.7,1.7A1.7,1.7,0,0,1,22.272,7.818Zm-6.818,0a1.7,1.7,0,1,1-1.7,1.7A1.7,1.7,0,0,1,15.454,7.818Zm-6.818,0a1.7,1.7,0,1,1-1.7,1.7A1.7,1.7,0,0,1,8.636,7.818Z" transform="translate(0 -1)" fill="#141324"/><path d="M0,151v35.795a5.119,5.119,0,0,0,5.114,5.114H53.067a5.119,5.119,0,0,0,5.114-5.114V151Zm19.928,24.237A1.7,1.7,0,1,1,17.8,177.9l-8.523-6.818a1.705,1.705,0,0,1,0-2.662L17.8,161.6a1.7,1.7,0,1,1,2.129,2.662l-6.859,5.487ZM35.77,158.49,25.543,182.353a1.7,1.7,0,1,1-3.133-1.343l10.227-23.863a1.7,1.7,0,1,1,3.133,1.343ZM48.9,171.081,40.382,177.9a1.7,1.7,0,1,1-2.129-2.662l6.859-5.487-6.859-5.487a1.7,1.7,0,1,1,2.129-2.662l8.523,6.818A1.705,1.705,0,0,1,48.9,171.081Z" transform="translate(0 -133.955)" fill="#141324"/><rect width="48.961" height="31.975" transform="translate(3.967 19.914)" fill="#141324"/></g><g transform="translate(-5340.906 -11701.428)"><g transform="translate(0 0)"><path d="M128.17,714.782v-9.316a.753.753,0,0,1,.752-.752h4.309a3.491,3.491,0,1,1,0,6.974h-2.743a.014.014,0,0,0-.014.014v3.08a.752.752,0,0,1-.752.752h-.8a.753.753,0,0,1-.752-.752Zm6.336-6.44a1.555,1.555,0,0,0-1.6-1.6h-2.42a.015.015,0,0,0-.014.014v2.887a.015.015,0,0,0,.014.014h2.437a1.464,1.464,0,0,0,1.585-1.317Z" transform="translate(-128.17 -704.709)" fill="#fff"/><path d="M147.033,714.966l-1.621-6.346a.132.132,0,0,0-.263,0l-1.607,6.345a.754.754,0,0,1-.729.568h-1.3a.753.753,0,0,1-.725-.546l-2.667-9.313a.752.752,0,0,1,.725-.959h.988a.751.751,0,0,1,.731.575l1.632,6.719a.136.136,0,0,0,.263,0l1.774-6.739a.753.753,0,0,1,.725-.561h.64a.753.753,0,0,1,.725.562L148.086,712a.136.136,0,0,0,.264,0l1.617-6.719a.751.751,0,0,1,.731-.576H151.7a.752.752,0,0,1,.725.959l-2.653,9.313a.752.752,0,0,1-.725.547h-1.3a.753.753,0,0,1-.725-.566Z" transform="translate(-128.786 -704.709)" fill="#fff"/><path d="M161.305,715.037l-.482-1.329a.014.014,0,0,0-.013-.009h-4.619a.014.014,0,0,0-.013.009l-.493,1.333a.753.753,0,0,1-.706.493h-1.007a.753.753,0,0,1-.7-1.024l3.6-9.313a.751.751,0,0,1,.7-.481h1.855a.753.753,0,0,1,.7.482l3.588,9.313a.752.752,0,0,1-.7,1.023h-1.006a.753.753,0,0,1-.709-.5Zm-2.934-7.661-1.49,4.115a.138.138,0,0,0,.132.184h2.979a.139.139,0,0,0,.132-.184l-1.49-4.113a.138.138,0,0,0-.258,0Z" transform="translate(-129.726 -704.71)" fill="#fff"/></g></g></g></svg>