<svg id="Layer_1" enable-background="new 0 0 50 50" height="512" viewBox="0 0 50 50" width="512" xmlns="http://www.w3.org/2000/svg"><g><path d="m17.9 27.2c0 .2.3.4.5.4h8.2 1 .1c.3 0 .5.2.5.5s-.2.5-.5.5h-9c-.3 0-.5.2-.5.5s.2.5.5.5h9c.8 0 1.5-.7 1.5-1.5 0-.6-.4-1.1-.9-1.4l1.1-4.9.6-2.8h.6c.3 0 .5-.2.5-.5s-.2-.5-.5-.5h-1c-.2 0-.4.2-.5.4l-.6 2.8h-11.5c-.1 0-.3.1-.4.2s-.1.3-.1.4zm.5-2h1.6l.2 1.4h-1.4zm5.1-1v-2h1.9l-.2 2zm1.5 1-.2 1.4h-1.4v-1.4zm-2.5-1h-1.7l-.2-2h1.9zm0 1v1.4h-1.4l-.1-1.4zm3.4 1.4.2-1.4h1.5l-.3 1.4h-.6zm1.9-2.4h-1.6l.2-2h1.9zm-8.2-2 .2 2h-1.6l-.5-2z"/><path d="m38.4 27.6v-12.4c2-.3 3.5-2 3.5-4.1v-1.6-.1s0 0 0-.1-.1-.2-.1-.2l-3.3-2.9v-.4c0-2.7-2.2-4.8-4.8-4.8h-20.8c-2.6 0-4.8 2.2-4.8 4.8v.4l-3.4 2.9c0 .1-.1.1-.1.2v.1.1 1.6c0 2.1 1.5 3.8 3.5 4.1v29c0 2.7 2.1 4.8 4.8 4.8h20.8c2.6 0 4.8-2.2 4.8-4.8v-1.4c3.9-.3 7-3.6 7-7.6s-3.2-7.3-7.1-7.6zm2.6-16.5c0 1.7-1.4 3.1-3.1 3.1s-3.1-1.4-3.1-3.1v-1.1h6.2zm-7.4-7.1c.4 0 .8.1 1 .3l5.5 4.7h-5.7l-.4-.7-3-4.3zm-13.5 6h6.3v1.1c0 1.7-1.4 3.1-3.1 3.1s-3.1-1.4-3.1-3.1c-.1 0-.1-1.1-.1-1.1zm1.3-6h3.7l.4 1.9.8 3.1h-6l.7-3.1zm-9.8.5.2-.2c.3-.2.7-.3 1.1-.3h2.7l-2.9 4.1-.6.9h-5.7zm-2.9 9.7c-1.7 0-3.1-1.4-3.1-3.1v-1.1h6.3v1.1c-.1 1.7-1.5 3.1-3.2 3.1zm26.7 30c0 1-.8 1.8-1.8 1.8h-20.7c-1 0-1.8-.8-1.8-1.8v-29.7c.5-.4.9-.9 1.3-1.4.7 1.3 2.1 2.2 3.6 2.2 1.6 0 2.9-.9 3.6-2.2.7 1.3 2 2.2 3.6 2.2s2.9-.9 3.6-2.2c.7 1.3 2 2.2 3.6 2.2s2.9-.9 3.6-2.2c.3.6.7 1.1 1.3 1.4v13.5c-3 1-5.2 3.9-5.2 7.2s2.2 6.2 5.2 7.2zm2.4-2.4c-3.7 0-6.6-3-6.6-6.6s3-6.6 6.6-6.6c3.7 0 6.6 3 6.6 6.6s-2.9 6.6-6.6 6.6z"/><path d="m27.5 31.8c0 .4-.1.8-.4 1.1s-.7.5-1.1.5c-.8 0-1.5-.7-1.5-1.5 0-.4.2-.8.5-1.1s.6-.5 1.1-.5c.7 0 1.4.7 1.4 1.5z"/><path d="m22 31.8c0 .8-.7 1.5-1.5 1.5s-1.5-.7-1.5-1.5.7-1.5 1.5-1.5 1.5.7 1.5 1.5z"/><path d="m42.4 34v2.5c0 .3-.2.5-.5.5h-2.3v2.3c0 .3-.2.5-.5.5h-2.5c-.3 0-.5-.2-.5-.5v-2.3h-2.3c-.3 0-.5-.2-.5-.5v-2.5c0-.3.2-.5.5-.5h2.3v-2.3c0-.3.2-.5.5-.5h2.4c.3 0 .5.2.5.5v2.3h2.3c.3 0 .6.2.6.5z"/><path d="m27.9 40.4c0 1.2-1 2.2-2.1 2.2h-5c-1.2 0-2.1-1-2.1-2.2s1-2.2 2.1-2.2h5c1.2 0 2.1 1 2.1 2.2z"/></g></svg>